
<svg width="1160" height="220" viewBox="0 0 1160 220" fill="none" xmlns="http://www.w3.org/2000/svg">
<g clip-path="url(#clip0_9561_1278)">
<rect x="0.703571" y="35.323" width="147.093" height="147.093" rx="13.3679" stroke="#D4D7DC" stroke-width="1.40714"/>
<!-- Voluum triangular mark (icon only), centered with consistent padding -->
<g transform="translate(39.5,52.5) scale(2.2)" fill-rule="nonzero">
  <path d="M26.786 25.56v14.063l-10.824 6.371L5.14 39.623V25.67L0 16.772v25.927l15.962 9.228 15.963-9.228V16.552z" fill="#D4D4D4"/>
  <path d="M15.962.073L0 9.521v5.933l15.962-9.339 10.387 6.043-10.387 18.127-6.34-11.206h10.604l2.952-5.164H6.56l-4.483 2.527 13.885 24.17 15.963-27.795V9.52z" fill="#C5C5C5"/>
</g>
<rect x="169.204" y="35.323" width="147.093" height="147.093" rx="13.3679" stroke="#D4D7DC" stroke-width="1.40714"/>
<!-- ClickFlare mark (icon only), centered with consistent padding -->
<g transform="translate(198.7, 62.2) scale(2.8)">
  <path d="M19.0005 3.05078L7.70288 7.70343L13.3438 11.4415L18.9848 15.1819L19.0005 3.05078Z" fill="#D4D4D4"/>
  <path d="M30.2821 10.5308L18.9846 15.1812L24.6255 18.9215L30.2665 22.6618L30.2821 10.5308Z" fill="#D4D4D4"/>
  <path d="M24.6412 6.7911L19.0002 3.05078L18.9846 15.1819L30.2821 10.5314L24.6412 6.7911Z" fill="#C5C5C5"/>
  <path d="M25.8073 0.248821L19.0001 3.05018L24.641 6.7905L30.282 10.5308L30.2909 3.22332C30.2954 0.928073 27.9428 -0.63021 25.8073 0.248821Z" fill="#C5C5C5"/>
  <path d="M7.70257 7.70312L1.99894 10.0494C-0.391753 11.0328 -0.711855 14.2648 1.43932 15.6921L2.04371 16.0939L7.68466 19.8342L7.70257 7.70312Z" fill="#D0D0D0"/>
  <path d="M7.68701 19.832L18.9846 15.1816L13.3436 11.4412L7.70268 7.70312L7.68701 19.832Z" fill="#D0D0D0"/>
  <path d="M30.2663 22.6616L30.2573 28.7838C30.2528 31.352 27.3652 32.8793 25.214 31.4519L24.6096 31.0502L18.9687 27.3098L30.2663 22.6616Z" fill="#D0D0D0"/>
  <path d="M18.9687 27.3122L18.9844 15.1812L24.6253 18.9215L30.2663 22.6618L18.9687 27.3122Z" fill="#D0D0D0"/>
  <path d="M7.67114 31.9631L18.9687 27.3127L13.3278 23.5724L7.68681 19.832L7.67114 31.9631Z" fill="#DFDFDF"/>
</g>
<rect x="337.704" y="35.323" width="147.093" height="147.093" rx="13.3679" stroke="#D4D7DC" stroke-width="1.40714"/>
<g clip-path="url(#clip1_9561_1278)">
<path d="M398.32 102.643H407.218C404.99 101.243 404.158 99.2903 403.044 95.6687L399.702 83.2477C398.179 77.6596 396.924 75.0141 390.804 75.0141H378.014V78.367H379.833C383.584 78.367 384.007 79.7675 385.121 83.955L388.04 94.8482C389.563 100.139 391.946 102.643 398.32 102.643ZM418.923 102.643H427.821C434.223 102.643 436.437 100.125 437.974 94.834L440.893 83.9409C442.007 79.7534 442.557 78.3528 446.181 78.3528H448V75H435.337C429.076 75 427.821 77.5182 426.425 83.2335L423.083 95.6546C421.983 99.4177 421.137 101.243 418.923 102.643ZM407.232 114.357H418.923V102.629H407.232V114.357ZM378.014 142H390.804C396.924 142 398.179 139.34 399.702 133.766L403.044 121.345C404.158 117.724 404.99 115.757 407.218 114.371H398.32C391.918 114.371 389.549 116.889 388.026 122.18L385.107 133.073C383.993 137.261 383.584 138.661 379.819 138.661H378L378.014 142ZM435.323 142H447.986V138.647H446.167C442.557 138.647 441.993 137.247 440.879 133.059L437.96 122.166C436.437 116.861 434.209 114.357 427.807 114.357H418.923C421.151 115.757 421.954 117.568 423.068 121.331L426.411 133.752C427.807 139.482 429.062 142 435.323 142Z" fill="#D5D5D5"/>
</g>
<rect x="506.204" y="35.323" width="147.093" height="147.093" rx="13.3679" stroke="#D4D7DC" stroke-width="1.40714"/>
<!-- Voluum logo inserted with consistent padding -->
<g transform="translate(519.75,89.37) scale(0.75)" fill-rule="nonzero">
  <g fill="#D4D4D4">
    <path d="M41.764 16.833h4.155l5.904 13.183 5.685-13.183h4.264l-9.95 20.983zM70.956 37.157c-6.013 0-10.933-4.724-10.933-10.437 0-5.712 4.81-10.436 10.933-10.436 6.013 0 10.824 4.504 10.824 10.546 0 5.713-4.92 10.327-10.824 10.327m0-17.468c-3.827 0-6.888 3.076-6.888 6.921 0 3.736 3.061 7.141 6.778 7.141 3.936 0 6.998-3.076 6.998-7.03 0-3.956-3.17-7.032-6.888-7.032M83.748 36.717V16.833h3.717v16.479h8.309v3.405zM110.206 16.833h3.717V34.3c-1.53 1.648-4.155 2.967-8.2 2.967-5.248 0-8.2-2.527-8.2-7.8V16.833h3.717v10.436c0 5.054.984 6.592 5.03 6.592 1.64 0 2.952-.44 3.936-1.099v-15.93zM129.667 16.833h3.717V34.3c-1.53 1.648-4.155 2.967-8.2 2.967-5.248 0-8.2-2.527-8.2-7.8V16.833h3.717v10.436c0 5.054.984 6.592 5.03 6.592 1.64 0 2.952-.44 3.936-1.099v-15.93zM155.687 36.717l-.984-10.107-6.778 10.876-6.779-10.766-.984 9.997h-4.045l2.733-20.433 9.075 14.391 9.074-14.391 2.624 20.433z"/>
  </g>
  <g fill="#C5C5C5">
    <path d="M26.786 25.56v14.063l-10.824 6.371L5.14 39.623V25.67L0 16.772v25.927l15.962 9.228 15.963-9.228V16.552z"/>
    <path d="M15.962.073L0 9.521v5.933l15.962-9.339 10.387 6.043-10.387 18.127-6.34-11.206h10.604l2.952-5.164H6.56l-4.483 2.527 13.885 24.17 15.963-27.795V9.52z"/>
  </g>
</g>
<rect x="674.704" y="35.323" width="147.093" height="147.093" rx="13.3679" stroke="#D4D7DC" stroke-width="1.40714"/>
<!-- RedTrack mark inserted in grayscale style -->
<g transform="translate(699.1,59.3) scale(0.78)">
  <path
    d="M100.943 66.0688C100.943 74.0093 98.5893 81.7716 94.1783 88.3742C89.7673 94.9769 83.4974 100.123 76.1616 103.162C68.8257 106.202 60.7534 106.997 52.9653 105.449C45.1773 103.9 38.0233 100.077 32.4081 94.4627C26.7929 88.8483 22.9687 81.695 21.419 73.9072C19.8693 66.1194 20.6638 58.0469 23.7019 50.7106C26.7401 43.3743 31.8855 37.1037 38.4874 32.6917C45.0894 28.2797 52.8514 25.9245 60.7919 25.9239C66.0642 25.9235 71.285 26.9616 76.1561 28.9789C81.0272 30.9961 85.4533 33.953 89.1816 37.6808C92.91 41.4086 95.8676 45.8343 97.8856 50.7051C99.9036 55.5759 100.942 60.7965 100.943 66.0688V66.0688Z"
    fill="#D9D9D9" />
  <path
    d="M60.7922 5.2764C27.218 5.2764 0 32.4944 0 66.0686C0 99.6428 27.218 126.861 60.7922 126.861C94.3665 126.861 121.584 99.6458 121.584 66.0686C121.584 32.4914 94.3695 5.2764 60.7922 5.2764ZM60.7922 97.9093C54.4942 97.9093 48.3375 96.0417 43.1008 92.5427C37.8642 89.0436 33.7827 84.0703 31.3725 78.2517C28.9623 72.433 28.3317 66.0303 29.5604 59.8532C30.7891 53.6762 33.8219 48.0022 38.2753 43.5488C42.7288 39.0953 48.4028 36.0625 54.5798 34.8338C60.7569 33.6051 67.1596 34.2357 72.9783 36.6459C78.797 39.0561 83.7703 43.1376 87.2693 48.3742C90.7683 53.6109 92.6359 59.7676 92.6359 66.0656C92.6363 70.2477 91.813 74.3888 90.2128 78.2526C88.6127 82.1164 86.2672 85.6272 83.3102 88.5845C80.3532 91.5417 76.8426 93.8876 72.979 95.4881C69.1153 97.0885 64.9743 97.9123 60.7922 97.9123V97.9093Z"
    fill="#D4D4D4" />
  <path
    d="M60.7916 19.7404C51.6304 19.7404 42.6749 22.4571 35.0576 27.5468C27.4404 32.6366 21.5035 39.8709 17.9978 48.3348C14.492 56.7988 13.5749 66.1122 15.3624 75.0974C17.1499 84.0825 21.5617 92.3358 28.0399 98.8136C34.5181 105.291 42.7717 109.703 51.757 111.49C60.7423 113.276 70.0557 112.359 78.5194 108.853C86.9831 105.346 94.217 99.4089 99.3063 91.7913C104.396 84.1737 107.112 75.2181 107.111 66.0568C107.111 59.9742 105.913 53.9512 103.585 48.3316C101.257 42.712 97.8455 37.606 93.5443 33.3051C89.2431 29.0042 84.1368 25.5926 78.5171 23.2652C72.8974 20.9377 66.8743 19.74 60.7916 19.7404V19.7404ZM60.7916 97.9005C54.4936 97.9005 48.3369 96.0329 43.1002 92.5339C37.8636 89.0348 33.7821 84.0615 31.3719 78.2429C28.9617 72.4242 28.3311 66.0215 29.5598 59.8444C30.7885 53.6674 33.8213 47.9934 38.2748 43.5399C42.7282 39.0865 48.4022 36.0537 54.5792 34.825C60.7563 33.5963 67.159 34.2269 72.9777 36.6371C78.7964 39.0473 83.7697 43.1288 87.2687 48.3654C90.7677 53.6021 92.6353 59.7587 92.6353 66.0568C92.6369 70.2396 91.8144 74.3817 90.2148 78.2465C88.6152 82.1113 86.2699 85.6232 83.3127 88.5814C80.3556 91.5396 76.8447 93.8862 72.9805 95.4873C69.1162 97.0883 64.9744 97.9124 60.7916 97.9124V97.9005Z"
    fill="#C5C5C5" />
  <path
    d="M66.8836 0.0251653C98.6052 3.00372 123.851 28.2618 126.842 59.9834C126.916 60.7856 126.823 61.5946 126.567 62.3585C126.311 63.1225 125.899 63.8247 125.356 64.4201C124.813 65.0156 124.152 65.4912 123.415 65.8166C122.678 66.142 121.881 66.31 121.075 66.3098H86.4497C85.7375 66.3098 85.0504 66.0474 84.5195 65.5726C83.9887 65.0979 83.6515 64.4441 83.5724 63.7364L83.5367 63.4147C82.8918 58.313 80.5684 53.5708 76.9323 49.9347C73.2962 46.2985 68.5539 43.9751 63.4523 43.3303L63.1276 43.2916C62.4204 43.2131 61.767 42.8764 61.2927 42.346C60.8184 41.8156 60.5565 41.1288 60.5571 40.4173V5.79164C60.5565 4.98581 60.7242 4.18875 61.0495 3.45148C61.3747 2.71421 61.8503 2.05299 62.4459 1.51015C63.0414 0.967316 63.7438 0.554847 64.5079 0.299132C65.2721 0.0434174 66.0813 -0.0499011 66.8836 0.0251653Z"
    fill="#D0D0D0" />
  <path
    d="M107.112 66.3094H86.4497C85.7375 66.3094 85.0504 66.047 84.5195 65.5722C83.9887 65.0975 83.6515 64.4437 83.5724 63.736L83.5367 63.4143C82.8918 58.3126 80.5684 53.5703 76.9323 49.9342C73.2962 46.2981 68.5539 43.9747 63.4523 43.3299L63.1276 43.2911C62.4204 43.2127 61.767 42.8759 61.2927 42.3455C60.8184 41.8152 60.5565 41.1284 60.5571 40.4168V19.7546H60.7954C66.878 19.7542 72.9012 20.9519 78.5209 23.2794C84.1406 25.6068 89.2468 29.0184 93.548 33.3193C97.8492 37.6203 101.261 42.7263 103.589 48.3459C105.917 53.9655 107.115 59.9885 107.115 66.0711C107.115 66.1486 107.112 66.229 107.112 66.3094Z"
    fill="#DFDFDF" />
</g>
<rect x="843.204" y="35.323" width="147.093" height="147.093" rx="13.3679" stroke="#D4D7DC" stroke-width="1.40714"/>
<!-- Thrive mark (icon only), centered with consistent padding -->
<g transform="translate(876.4, 69.0) scale(2.6)" fill-rule="nonzero">
  <path d="M1.09742429,16.7169863 L4.2011183,16.7169863 L5.69674387,14.2681161 L6.27476341,16.1750718 L10.0142789,5.21053248 L11.0759383,20.0017448 L12.6799425,13.7644866 L14.0324179,16.7169863 L18.0505569,16.7169863 L19.5949529,13.9704961 L19.9548603,15.8706152 L23.7770146,5.52456031 L25.0762038,20.0008332 L26.4435813,14.2731296 L28.1234506,16.7169863 L31.418162,16.7169863 L32.5602022,15.5916819 C31.8968344,6.97164067 24.8716391,0.189277555 16.3029509,0.189277555 C7.85844665,0.189277555 0.912728986,6.77656968 0.0782132696,15.2179478" fill="#D4D4D4"/>
  <path d="M27.4072483,17.9251047 L27.0369545,17.3859248 L24.4900559,28.0546672 L22.9935272,11.3783764 L19.546634,20.707601 L18.9749366,17.6890141 L18.8421727,17.9251047 L18.446139,17.9251047 L13.600258,17.9251047 L13.1685496,17.9251047 L13.0294637,17.6215597 L10.3466402,28.0532999 L9.17208638,11.6924042 L6.20160782,20.4026886 L5.28851757,17.3913941 L4.96247842,17.9251047 L0.382576686,17.9251047 L9.03155542e-05,17.3704285 C0.228588667,26.410237 7.44028564,33.6661486 16.3029509,33.6661486 C25.1854856,33.6661486 32.4093752,26.3774213 32.6071663,17.3093549 L31.9826342,17.9251047 L27.4072483,17.9251047 Z" fill="#C5C5C5"/>
</g>
<rect x="1011.7" y="35.323" width="147.093" height="147.093" rx="13.3679" stroke="#D4D7DC" stroke-width="1.40714"/>
<path d="M1074 114.468V121.784C1079.58 121.778 1084.94 119.625 1088.88 115.799C1092.83 111.973 1095.05 106.786 1095.06 101.375H1087.51C1087.51 104.846 1086.08 108.174 1083.55 110.628C1081.02 113.083 1077.58 114.464 1074 114.468Z" fill="#E4E4E4"/>
<path d="M1074 134.62C1070.44 134.62 1067.04 133.251 1064.52 130.814C1062.01 128.378 1060.59 125.072 1060.59 121.626C1060.59 118.18 1062.01 114.875 1064.52 112.438C1067.04 110.001 1070.44 108.632 1074 108.632V101.37C1071.25 101.366 1068.54 101.887 1066 102.901C1063.46 103.916 1061.15 105.406 1059.21 107.285C1057.26 109.164 1055.72 111.396 1054.67 113.853C1053.61 116.31 1053.07 118.944 1053.06 121.605C1053.06 124.267 1053.6 126.902 1054.64 129.363C1055.69 131.823 1057.23 134.059 1059.17 135.943C1061.11 137.828 1063.41 139.324 1065.94 140.345C1068.48 141.367 1071.2 141.895 1073.94 141.899H1074V134.62Z" fill="#C5C5C5"/>
<path d="M1074 134.62V141.882C1079.55 141.882 1084.86 139.747 1088.78 135.947C1092.71 132.147 1094.91 126.992 1094.91 121.618H1087.41C1087.41 125.064 1085.99 128.369 1083.48 130.806C1080.97 133.244 1077.56 134.616 1074 134.62Z" fill="#DFDFDF"/>
<path d="M1074 94.1032V101.365C1079.55 101.365 1084.86 99.2304 1088.78 95.43C1092.71 91.6296 1094.91 86.4753 1094.91 81.1008H1087.41C1087.41 84.5472 1085.99 87.8519 1083.48 90.2896C1080.97 92.7273 1077.56 94.0988 1074 94.1032Z" fill="#CCCCCC"/>
<path d="M1095.03 94.1032V101.365C1100.57 101.365 1105.89 99.2304 1109.81 95.43C1113.73 91.6296 1115.93 86.4753 1115.93 81.1008H1108.44C1108.44 84.5479 1107.02 87.8532 1104.51 90.291C1101.99 92.7288 1098.59 94.0999 1095.03 94.1032Z" fill="#E1E1E1"/>
<g filter="url(#filter0_d_9561_1278)">
<rect x="470.5" y="0.5" width="219" height="219" rx="9.5" fill="white" stroke="#535963"/>
<!-- Insert Tracked mark centered inside the featured box -->
<g transform="translate(500,30) scale(0.15625)">
  <circle cx="512" cy="512" r="336" fill="#1F2328"/>
  <path d="M319 317H706V415H563V733H460V415H319Z" fill="#fff" shape-rendering="geometricPrecision"/>
</g>
</g>
</g>
<defs>
<filter id="filter0_d_9561_1278" x="454" y="-12" width="252" height="252" filterUnits="userSpaceOnUse" color-interpolation-filters="sRGB">
<feFlood flood-opacity="0" result="BackgroundImageFix"/>
<feColorMatrix in="SourceAlpha" type="matrix" values="0 0 0 0 0 0 0 0 0 0 0 0 0 0 0 0 0 0 127 0" result="hardAlpha"/>
<feOffset dy="4"/>
<feGaussianBlur stdDeviation="8"/>
<feComposite in2="hardAlpha" operator="out"/>
<feColorMatrix type="matrix" values="0 0 0 0 0 0 0 0 0 0 0 0 0 0 0 0 0 0 0.04 0"/>
<feBlend mode="normal" in2="BackgroundImageFix" result="effect1_dropShadow_9561_1278"/>
<feBlend mode="normal" in="SourceGraphic" in2="effect1_dropShadow_9561_1278" result="shape"/>
</filter>
<clipPath id="clip0_9561_1278">
<rect width="1160" height="220" fill="white"/>
</clipPath>
<clipPath id="clip1_9561_1278">
<rect width="70" height="67" fill="white" transform="translate(378 75)"/>
</clipPath>
</defs>
</svg>
