<svg xmlns="http://www.w3.org/2000/svg" width="160" height="52" viewBox="0 0 160 52">
    <g fill="none" fill-rule="nonzero">
        <g fill="#0F0047">
            <path d="M41.764 16.833h4.155l5.904 13.183 5.685-13.183h4.264l-9.95 20.983zM70.956 37.157c-6.013 0-10.933-4.724-10.933-10.437 0-5.712 4.81-10.436 10.933-10.436 6.013 0 10.824 4.504 10.824 10.546 0 5.713-4.92 10.327-10.824 10.327m0-17.468c-3.827 0-6.888 3.076-6.888 6.921 0 3.736 3.061 7.141 6.778 7.141 3.936 0 6.998-3.076 6.998-7.03 0-3.956-3.17-7.032-6.888-7.032M83.748 36.717V16.833h3.717v16.479h8.309v3.405zM110.206 16.833h3.717V34.3c-1.53 1.648-4.155 2.967-8.2 2.967-5.248 0-8.2-2.527-8.2-7.8V16.833h3.717v10.436c0 5.054.984 6.592 5.03 6.592 1.64 0 2.952-.44 3.936-1.099v-15.93zM129.667 16.833h3.717V34.3c-1.53 1.648-4.155 2.967-8.2 2.967-5.248 0-8.2-2.527-8.2-7.8V16.833h3.717v10.436c0 5.054.984 6.592 5.03 6.592 1.64 0 2.952-.44 3.936-1.099v-15.93zM155.687 36.717l-.984-10.107-6.778 10.876-6.779-10.766-.984 9.997h-4.045l2.733-20.433 9.075 14.391 9.074-14.391 2.624 20.433z"/>
        </g>
        <g fill="#C800A0">
            <path d="M26.786 25.56v14.063l-10.824 6.371L5.14 39.623V25.67L0 16.772v25.927l15.962 9.228 15.963-9.228V16.552z"/>
            <path d="M15.962.073L0 9.521v5.933l15.962-9.339 10.387 6.043-10.387 18.127-6.34-11.206h10.604l2.952-5.164H6.56l-4.483 2.527 13.885 24.17 15.963-27.795V9.52z"/>
        </g>
    </g>
</svg>
